# xmcd
#
# Track frame offsets: 
#        150
#        16950
#        27825
#        46125
#        60750
#        79650
#        99600
#        116925
#        133275
#        164775
#        181200
#        193500
#        211125
#
# Disc length: 3062 seconds
#
# Revision: 0
# Processed by: cddbd v1.5.2PL0 Copyright (c) Steve Scherf et al.
# Submitted via: ExactAudioCopy v0.99pb3
#
DISCID=ac0bf40d
DTITLE=R. J. Mischo - King Of A Mighty Good Time
DYEAR=2008
DGENRE=Blues
TTITLE0=Cheap Wine
TTITLE1=Joint!
TTITLE2=Too Little Love (Too Much Religion)
TTITLE3=Who's Out There?
TTITLE4=Crawlin' Kingsnake
TTITLE5=Greyhound
TTITLE6=RJ's Back In Town
TTITLE7=Bird's Nest on The Ground
TTITLE8=I Can't Do Without You
TTITLE9=Good Bad Co. (Don't Worry)
TTITLE10=Give It Up
TTITLE11=Watchdog
TTITLE12=King Of A Mighty Good Time
EXTD=
EXTT0=
EXTT1=
EXTT2=
EXTT3=
EXTT4=
EXTT5=
EXTT6=
EXTT7=
EXTT8=
EXTT9=
EXTT10=
EXTT11=
EXTT12=
PLAYORDER=
